<?xml version="1.0" encoding="utf-8" standalone="no"?>
<!DOCTYPE svg PUBLIC "-//W3C//DTD SVG 1.1//EN"
  "http://www.w3.org/Graphics/SVG/1.1/DTD/svg11.dtd">
<svg xmlns:xlink="http://www.w3.org/1999/xlink" width="1844.64pt" height="163.08pt" viewBox="0 0 1844.64 163.08" xmlns="http://www.w3.org/2000/svg" version="1.1">
 <metadata>
  <rdf:RDF xmlns:dc="http://purl.org/dc/elements/1.1/" xmlns:cc="http://creativecommons.org/ns#" xmlns:rdf="http://www.w3.org/1999/02/22-rdf-syntax-ns#">
   <cc:Work>
    <dc:type rdf:resource="http://purl.org/dc/dcmitype/StillImage"/>
    <dc:date>2025-12-09T22:53:38.719820</dc:date>
    <dc:format>image/svg+xml</dc:format>
    <dc:creator>
     <cc:Agent>
      <dc:title>Matplotlib v3.9.4, https://matplotlib.org/</dc:title>
     </cc:Agent>
    </dc:creator>
   </cc:Work>
  </rdf:RDF>
 </metadata>
 <defs>
  <style type="text/css">*{stroke-linejoin: round; stroke-linecap: butt}</style>
 </defs>
 <g id="figure_1">
  <g id="patch_1">
   <path d="M 0 163.08 
L 1844.64 163.08 
L 1844.64 0 
L 0 0 
z
" style="fill: #ffffff"/>
  </g>
  <g id="axes_1">
   <g id="patch_2">
    <path d="M 60.452988 135.515882 
L 519.022153 135.515882 
Q 572.998035 135.515882 572.998035 81.54 
L 572.998035 81.54 
Q 572.998035 27.564118 519.022153 27.564118 
L 60.452988 27.564118 
Q 6.477106 27.564118 6.477106 81.54 
L 6.477106 81.54 
Q 6.477106 135.515882 60.452988 135.515882 
z
" clip-path="url(#pe5f808cee2)" style="fill: #d64b5a; opacity: 0.1; stroke: #d64b5a; stroke-width: 3.5"/>
   </g>
   <g id="patch_3">
    <path d="M 344.809062 135.515882 
L 1049.000699 135.515882 
Q 1102.97658 135.515882 1102.97658 81.54 
L 1102.97658 81.54 
Q 1102.97658 27.564118 1049.000699 27.564118 
L 344.809062 27.564118 
Q 290.83318 27.564118 290.83318 81.54 
L 290.83318 81.54 
Q 290.83318 135.515882 344.809062 135.515882 
z
" clip-path="url(#pe5f808cee2)" style="fill: #2e7d32; opacity: 0.1; stroke: #2e7d32; stroke-width: 3.5"/>
   </g>
   <g id="patch_4">
    <path d="M 900.115487 135.515882 
L 1513.048439 135.515882 
Q 1567.024321 135.515882 1567.024321 81.54 
L 1567.024321 81.54 
Q 1567.024321 27.564118 1513.048439 27.564118 
L 900.115487 27.564118 
Q 846.139605 27.564118 846.139605 81.54 
L 846.139605 81.54 
Q 846.139605 135.515882 900.115487 135.515882 
z
" clip-path="url(#pe5f808cee2)" style="fill: #2e5aac; opacity: 0.1; stroke: #2e5aac; stroke-width: 3.5"/>
   </g>
   <g id="patch_5">
    <path d="M 1405.457482 135.515882 
L 1784.187012 135.515882 
Q 1838.162894 135.515882 1838.162894 81.54 
L 1838.162894 81.54 
Q 1838.162894 27.564118 1784.187012 27.564118 
L 1405.457482 27.564118 
Q 1351.4816 27.564118 1351.4816 81.54 
L 1351.4816 81.54 
Q 1351.4816 135.515882 1405.457482 135.515882 
z
" clip-path="url(#pe5f808cee2)" style="fill: #d9882c; opacity: 0.1; stroke: #d9882c; stroke-width: 3.5"/>
   </g>
   <g id="text_1">
    <!-- Machine Learning -->
    <g style="fill: #d64b5a" transform="translate(28.067459 57.774651) scale(0.22 -0.22)">
     <defs>
      <path id="DejaVuSans-Bold-4d" d="M 588 4666 
L 2119 4666 
L 3181 2169 
L 4250 4666 
L 5778 4666 
L 5778 0 
L 4641 0 
L 4641 3413 
L 3566 897 
L 2803 897 
L 1728 3413 
L 1728 0 
L 588 0 
L 588 4666 
z
" transform="scale(0.015625)"/>
      <path id="DejaVuSans-Bold-61" d="M 2106 1575 
Q 1756 1575 1579 1456 
Q 1403 1338 1403 1106 
Q 1403 894 1545 773 
Q 1688 653 1941 653 
Q 2256 653 2472 879 
Q 2688 1106 2688 1447 
L 2688 1575 
L 2106 1575 
z
M 3816 1997 
L 3816 0 
L 2688 0 
L 2688 519 
Q 2463 200 2181 54 
Q 1900 -91 1497 -91 
Q 953 -91 614 226 
Q 275 544 275 1050 
Q 275 1666 698 1953 
Q 1122 2241 2028 2241 
L 2688 2241 
L 2688 2328 
Q 2688 2594 2478 2717 
Q 2269 2841 1825 2841 
Q 1466 2841 1156 2769 
Q 847 2697 581 2553 
L 581 3406 
Q 941 3494 1303 3539 
Q 1666 3584 2028 3584 
Q 2975 3584 3395 3211 
Q 3816 2838 3816 1997 
z
" transform="scale(0.015625)"/>
      <path id="DejaVuSans-Bold-63" d="M 3366 3391 
L 3366 2478 
Q 3138 2634 2908 2709 
Q 2678 2784 2431 2784 
Q 1963 2784 1702 2511 
Q 1441 2238 1441 1747 
Q 1441 1256 1702 982 
Q 1963 709 2431 709 
Q 2694 709 2930 787 
Q 3166 866 3366 1019 
L 3366 103 
Q 3103 6 2833 -42 
Q 2563 -91 2291 -91 
Q 1344 -91 809 395 
Q 275 881 275 1747 
Q 275 2613 809 3098 
Q 1344 3584 2291 3584 
Q 2566 3584 2833 3536 
Q 3100 3488 3366 3391 
z
" transform="scale(0.015625)"/>
      <path id="DejaVuSans-Bold-68" d="M 4056 2131 
L 4056 0 
L 2931 0 
L 2931 347 
L 2931 1625 
Q 2931 2084 2911 2256 
Q 2891 2428 2841 2509 
Q 2775 2619 2662 2680 
Q 2550 2741 2406 2741 
Q 2056 2741 1856 2470 
Q 1656 2200 1656 1722 
L 1656 0 
L 538 0 
L 538 4863 
L 1656 4863 
L 1656 2988 
Q 1909 3294 2193 3439 
Q 2478 3584 2822 3584 
Q 3428 3584 3742 3212 
Q 4056 2841 4056 2131 
z
" transform="scale(0.015625)"/>
      <path id="DejaVuSans-Bold-69" d="M 538 3500 
L 1656 3500 
L 1656 0 
L 538 0 
L 538 3500 
z
M 538 4863 
L 1656 4863 
L 1656 3950 
L 538 3950 
L 538 4863 
z
" transform="scale(0.015625)"/>
      <path id="DejaVuSans-Bold-6e" d="M 4056 2131 
L 4056 0 
L 2931 0 
L 2931 347 
L 2931 1631 
Q 2931 2084 2911 2256 
Q 2891 2428 2841 2509 
Q 2775 2619 2662 2680 
Q 2550 2741 2406 2741 
Q 2056 2741 1856 2470 
Q 1656 2200 1656 1722 
L 1656 0 
L 538 0 
L 538 3500 
L 1656 3500 
L 1656 2988 
Q 1909 3294 2193 3439 
Q 2478 3584 2822 3584 
Q 3428 3584 3742 3212 
Q 4056 2841 4056 2131 
z
" transform="scale(0.015625)"/>
      <path id="DejaVuSans-Bold-65" d="M 4031 1759 
L 4031 1441 
L 1416 1441 
Q 1456 1047 1700 850 
Q 1944 653 2381 653 
Q 2734 653 3104 758 
Q 3475 863 3866 1075 
L 3866 213 
Q 3469 63 3072 -14 
Q 2675 -91 2278 -91 
Q 1328 -91 801 392 
Q 275 875 275 1747 
Q 275 2603 792 3093 
Q 1309 3584 2216 3584 
Q 3041 3584 3536 3087 
Q 4031 2591 4031 1759 
z
M 2881 2131 
Q 2881 2450 2695 2645 
Q 2509 2841 2209 2841 
Q 1884 2841 1681 2658 
Q 1478 2475 1428 2131 
L 2881 2131 
z
" transform="scale(0.015625)"/>
      <path id="DejaVuSans-Bold-20" transform="scale(0.015625)"/>
      <path id="DejaVuSans-Bold-4c" d="M 588 4666 
L 1791 4666 
L 1791 909 
L 3903 909 
L 3903 0 
L 588 0 
L 588 4666 
z
" transform="scale(0.015625)"/>
      <path id="DejaVuSans-Bold-72" d="M 3138 2547 
Q 2991 2616 2845 2648 
Q 2700 2681 2553 2681 
Q 2122 2681 1889 2404 
Q 1656 2128 1656 1613 
L 1656 0 
L 538 0 
L 538 3500 
L 1656 3500 
L 1656 2925 
Q 1872 3269 2151 3426 
Q 2431 3584 2822 3584 
Q 2878 3584 2943 3579 
Q 3009 3575 3134 3559 
L 3138 2547 
z
" transform="scale(0.015625)"/>
      <path id="DejaVuSans-Bold-67" d="M 2919 594 
Q 2688 288 2409 144 
Q 2131 0 1766 0 
Q 1125 0 706 504 
Q 288 1009 288 1791 
Q 288 2575 706 3076 
Q 1125 3578 1766 3578 
Q 2131 3578 2409 3434 
Q 2688 3291 2919 2981 
L 2919 3500 
L 4044 3500 
L 4044 353 
Q 4044 -491 3511 -936 
Q 2978 -1381 1966 -1381 
Q 1638 -1381 1331 -1331 
Q 1025 -1281 716 -1178 
L 716 -306 
Q 1009 -475 1290 -558 
Q 1572 -641 1856 -641 
Q 2406 -641 2662 -400 
Q 2919 -159 2919 353 
L 2919 594 
z
M 2181 2772 
Q 1834 2772 1640 2515 
Q 1447 2259 1447 1791 
Q 1447 1309 1634 1061 
Q 1822 813 2181 813 
Q 2531 813 2725 1069 
Q 2919 1325 2919 1791 
Q 2919 2259 2725 2515 
Q 2531 2772 2181 2772 
z
" transform="scale(0.015625)"/>
     </defs>
     <use xlink:href="#DejaVuSans-Bold-4d"/>
     <use xlink:href="#DejaVuSans-Bold-61" x="99.511719"/>
     <use xlink:href="#DejaVuSans-Bold-63" x="166.992188"/>
     <use xlink:href="#DejaVuSans-Bold-68" x="226.269531"/>
     <use xlink:href="#DejaVuSans-Bold-69" x="297.460938"/>
     <use xlink:href="#DejaVuSans-Bold-6e" x="331.738281"/>
     <use xlink:href="#DejaVuSans-Bold-65" x="402.929688"/>
     <use xlink:href="#DejaVuSans-Bold-20" x="470.751953"/>
     <use xlink:href="#DejaVuSans-Bold-4c" x="505.566406"/>
     <use xlink:href="#DejaVuSans-Bold-65" x="569.287109"/>
     <use xlink:href="#DejaVuSans-Bold-61" x="637.109375"/>
     <use xlink:href="#DejaVuSans-Bold-72" x="704.589844"/>
     <use xlink:href="#DejaVuSans-Bold-6e" x="753.90625"/>
     <use xlink:href="#DejaVuSans-Bold-69" x="825.097656"/>
     <use xlink:href="#DejaVuSans-Bold-6e" x="859.375"/>
     <use xlink:href="#DejaVuSans-Bold-67" x="930.566406"/>
    </g>
   </g>
   <g id="text_2">
    <!-- Probability -->
    <g style="fill: #2e7d32" transform="translate(586.492006 57.774651) scale(0.22 -0.22)">
     <defs>
      <path id="DejaVuSans-Bold-50" d="M 588 4666 
L 2584 4666 
Q 3475 4666 3951 4270 
Q 4428 3875 4428 3144 
Q 4428 2409 3951 2014 
Q 3475 1619 2584 1619 
L 1791 1619 
L 1791 0 
L 588 0 
L 588 4666 
z
M 1791 3794 
L 1791 2491 
L 2456 2491 
Q 2806 2491 2997 2661 
Q 3188 2831 3188 3144 
Q 3188 3456 2997 3625 
Q 2806 3794 2456 3794 
L 1791 3794 
z
" transform="scale(0.015625)"/>
      <path id="DejaVuSans-Bold-6f" d="M 2203 2784 
Q 1831 2784 1636 2517 
Q 1441 2250 1441 1747 
Q 1441 1244 1636 976 
Q 1831 709 2203 709 
Q 2569 709 2762 976 
Q 2956 1244 2956 1747 
Q 2956 2250 2762 2517 
Q 2569 2784 2203 2784 
z
M 2203 3584 
Q 3106 3584 3614 3096 
Q 4122 2609 4122 1747 
Q 4122 884 3614 396 
Q 3106 -91 2203 -91 
Q 1297 -91 786 396 
Q 275 884 275 1747 
Q 275 2609 786 3096 
Q 1297 3584 2203 3584 
z
" transform="scale(0.015625)"/>
      <path id="DejaVuSans-Bold-62" d="M 2400 722 
Q 2759 722 2948 984 
Q 3138 1247 3138 1747 
Q 3138 2247 2948 2509 
Q 2759 2772 2400 2772 
Q 2041 2772 1848 2508 
Q 1656 2244 1656 1747 
Q 1656 1250 1848 986 
Q 2041 722 2400 722 
z
M 1656 2988 
Q 1888 3294 2169 3439 
Q 2450 3584 2816 3584 
Q 3463 3584 3878 3070 
Q 4294 2556 4294 1747 
Q 4294 938 3878 423 
Q 3463 -91 2816 -91 
Q 2450 -91 2169 54 
Q 1888 200 1656 506 
L 1656 0 
L 538 0 
L 538 4863 
L 1656 4863 
L 1656 2988 
z
" transform="scale(0.015625)"/>
      <path id="DejaVuSans-Bold-6c" d="M 538 4863 
L 1656 4863 
L 1656 0 
L 538 0 
L 538 4863 
z
" transform="scale(0.015625)"/>
      <path id="DejaVuSans-Bold-74" d="M 1759 4494 
L 1759 3500 
L 2913 3500 
L 2913 2700 
L 1759 2700 
L 1759 1216 
Q 1759 972 1856 886 
Q 1953 800 2241 800 
L 2816 800 
L 2816 0 
L 1856 0 
Q 1194 0 917 276 
Q 641 553 641 1216 
L 641 2700 
L 84 2700 
L 84 3500 
L 641 3500 
L 641 4494 
L 1759 4494 
z
" transform="scale(0.015625)"/>
      <path id="DejaVuSans-Bold-79" d="M 78 3500 
L 1197 3500 
L 2138 1125 
L 2938 3500 
L 4056 3500 
L 2584 -331 
Q 2363 -916 2067 -1148 
Q 1772 -1381 1288 -1381 
L 641 -1381 
L 641 -647 
L 991 -647 
Q 1275 -647 1404 -556 
Q 1534 -466 1606 -231 
L 1638 -134 
L 78 3500 
z
" transform="scale(0.015625)"/>
     </defs>
     <use xlink:href="#DejaVuSans-Bold-50"/>
     <use xlink:href="#DejaVuSans-Bold-72" x="73.291016"/>
     <use xlink:href="#DejaVuSans-Bold-6f" x="122.607422"/>
     <use xlink:href="#DejaVuSans-Bold-62" x="191.308594"/>
     <use xlink:href="#DejaVuSans-Bold-61" x="262.890625"/>
     <use xlink:href="#DejaVuSans-Bold-62" x="330.371094"/>
     <use xlink:href="#DejaVuSans-Bold-69" x="401.953125"/>
     <use xlink:href="#DejaVuSans-Bold-6c" x="436.230469"/>
     <use xlink:href="#DejaVuSans-Bold-69" x="470.507812"/>
     <use xlink:href="#DejaVuSans-Bold-74" x="504.785156"/>
     <use xlink:href="#DejaVuSans-Bold-79" x="552.587891"/>
    </g>
   </g>
   <g id="text_3">
    <!-- Graph Theory -->
    <g style="fill: #2e5aac" transform="translate(1116.470551 57.774651) scale(0.22 -0.22)">
     <defs>
      <path id="DejaVuSans-Bold-47" d="M 4781 347 
Q 4331 128 3847 18 
Q 3363 -91 2847 -91 
Q 1681 -91 1000 561 
Q 319 1213 319 2328 
Q 319 3456 1012 4103 
Q 1706 4750 2913 4750 
Q 3378 4750 3804 4662 
Q 4231 4575 4609 4403 
L 4609 3438 
Q 4219 3659 3833 3768 
Q 3447 3878 3059 3878 
Q 2341 3878 1952 3476 
Q 1563 3075 1563 2328 
Q 1563 1588 1938 1184 
Q 2313 781 3003 781 
Q 3191 781 3352 804 
Q 3513 828 3641 878 
L 3641 1784 
L 2906 1784 
L 2906 2591 
L 4781 2591 
L 4781 347 
z
" transform="scale(0.015625)"/>
      <path id="DejaVuSans-Bold-70" d="M 1656 506 
L 1656 -1331 
L 538 -1331 
L 538 3500 
L 1656 3500 
L 1656 2988 
Q 1888 3294 2169 3439 
Q 2450 3584 2816 3584 
Q 3463 3584 3878 3070 
Q 4294 2556 4294 1747 
Q 4294 938 3878 423 
Q 3463 -91 2816 -91 
Q 2450 -91 2169 54 
Q 1888 200 1656 506 
z
M 2400 2772 
Q 2041 2772 1848 2508 
Q 1656 2244 1656 1747 
Q 1656 1250 1848 986 
Q 2041 722 2400 722 
Q 2759 722 2948 984 
Q 3138 1247 3138 1747 
Q 3138 2247 2948 2509 
Q 2759 2772 2400 2772 
z
" transform="scale(0.015625)"/>
      <path id="DejaVuSans-Bold-54" d="M 31 4666 
L 4331 4666 
L 4331 3756 
L 2784 3756 
L 2784 0 
L 1581 0 
L 1581 3756 
L 31 3756 
L 31 4666 
z
" transform="scale(0.015625)"/>
     </defs>
     <use xlink:href="#DejaVuSans-Bold-47"/>
     <use xlink:href="#DejaVuSans-Bold-72" x="82.080078"/>
     <use xlink:href="#DejaVuSans-Bold-61" x="131.396484"/>
     <use xlink:href="#DejaVuSans-Bold-70" x="198.876953"/>
     <use xlink:href="#DejaVuSans-Bold-68" x="270.458984"/>
     <use xlink:href="#DejaVuSans-Bold-20" x="341.650391"/>
     <use xlink:href="#DejaVuSans-Bold-54" x="376.464844"/>
     <use xlink:href="#DejaVuSans-Bold-68" x="444.677734"/>
     <use xlink:href="#DejaVuSans-Bold-65" x="515.869141"/>
     <use xlink:href="#DejaVuSans-Bold-6f" x="583.691406"/>
     <use xlink:href="#DejaVuSans-Bold-72" x="652.392578"/>
     <use xlink:href="#DejaVuSans-Bold-79" x="701.708984"/>
    </g>
   </g>
   <g id="text_4">
    <!-- Optimization -->
    <g style="fill: #d9882c" transform="translate(1580.518291 57.774651) scale(0.22 -0.22)">
     <defs>
      <path id="DejaVuSans-Bold-4f" d="M 2719 3878 
Q 2169 3878 1866 3472 
Q 1563 3066 1563 2328 
Q 1563 1594 1866 1187 
Q 2169 781 2719 781 
Q 3272 781 3575 1187 
Q 3878 1594 3878 2328 
Q 3878 3066 3575 3472 
Q 3272 3878 2719 3878 
z
M 2719 4750 
Q 3844 4750 4481 4106 
Q 5119 3463 5119 2328 
Q 5119 1197 4481 553 
Q 3844 -91 2719 -91 
Q 1597 -91 958 553 
Q 319 1197 319 2328 
Q 319 3463 958 4106 
Q 1597 4750 2719 4750 
z
" transform="scale(0.015625)"/>
      <path id="DejaVuSans-Bold-6d" d="M 3781 2919 
Q 3994 3244 4286 3414 
Q 4578 3584 4928 3584 
Q 5531 3584 5847 3212 
Q 6163 2841 6163 2131 
L 6163 0 
L 5038 0 
L 5038 1825 
Q 5041 1866 5042 1909 
Q 5044 1953 5044 2034 
Q 5044 2406 4934 2573 
Q 4825 2741 4581 2741 
Q 4263 2741 4089 2478 
Q 3916 2216 3909 1719 
L 3909 0 
L 2784 0 
L 2784 1825 
Q 2784 2406 2684 2573 
Q 2584 2741 2328 2741 
Q 2006 2741 1831 2477 
Q 1656 2213 1656 1722 
L 1656 0 
L 531 0 
L 531 3500 
L 1656 3500 
L 1656 2988 
Q 1863 3284 2130 3434 
Q 2397 3584 2719 3584 
Q 3081 3584 3359 3409 
Q 3638 3234 3781 2919 
z
" transform="scale(0.015625)"/>
      <path id="DejaVuSans-Bold-7a" d="M 366 3500 
L 3419 3500 
L 3419 2719 
L 1575 800 
L 3419 800 
L 3419 0 
L 288 0 
L 288 781 
L 2131 2700 
L 366 2700 
L 366 3500 
z
" transform="scale(0.015625)"/>
     </defs>
     <use xlink:href="#DejaVuSans-Bold-4f"/>
     <use xlink:href="#DejaVuSans-Bold-70" x="85.009766"/>
     <use xlink:href="#DejaVuSans-Bold-74" x="156.591797"/>
     <use xlink:href="#DejaVuSans-Bold-69" x="204.394531"/>
     <use xlink:href="#DejaVuSans-Bold-6d" x="238.671875"/>
     <use xlink:href="#DejaVuSans-Bold-69" x="342.871094"/>
     <use xlink:href="#DejaVuSans-Bold-7a" x="377.148438"/>
     <use xlink:href="#DejaVuSans-Bold-61" x="435.351562"/>
     <use xlink:href="#DejaVuSans-Bold-74" x="502.832031"/>
     <use xlink:href="#DejaVuSans-Bold-69" x="550.634766"/>
     <use xlink:href="#DejaVuSans-Bold-6f" x="584.912109"/>
     <use xlink:href="#DejaVuSans-Bold-6e" x="653.613281"/>
    </g>
   </g>
   <g id="text_5">
    <!-- • Generative models -->
    <g style="fill: #222222" transform="translate(28.067459 85.601118) scale(0.16 -0.16)">
     <defs>
      <path id="DejaVuSans-2022" d="M 959 2381 
Q 959 2769 1229 3036 
Q 1500 3303 1894 3303 
Q 2281 3303 2548 3036 
Q 2816 2769 2816 2381 
Q 2816 1991 2547 1722 
Q 2278 1453 1888 1453 
Q 1497 1453 1228 1722 
Q 959 1991 959 2381 
z
" transform="scale(0.015625)"/>
      <path id="DejaVuSans-20" transform="scale(0.015625)"/>
      <path id="DejaVuSans-47" d="M 3809 666 
L 3809 1919 
L 2778 1919 
L 2778 2438 
L 4434 2438 
L 4434 434 
Q 4069 175 3628 42 
Q 3188 -91 2688 -91 
Q 1594 -91 976 548 
Q 359 1188 359 2328 
Q 359 3472 976 4111 
Q 1594 4750 2688 4750 
Q 3144 4750 3555 4637 
Q 3966 4525 4313 4306 
L 4313 3634 
Q 3963 3931 3569 4081 
Q 3175 4231 2741 4231 
Q 1884 4231 1454 3753 
Q 1025 3275 1025 2328 
Q 1025 1384 1454 906 
Q 1884 428 2741 428 
Q 3075 428 3337 486 
Q 3600 544 3809 666 
z
" transform="scale(0.015625)"/>
      <path id="DejaVuSans-65" d="M 3597 1894 
L 3597 1613 
L 953 1613 
Q 991 1019 1311 708 
Q 1631 397 2203 397 
Q 2534 397 2845 478 
Q 3156 559 3463 722 
L 3463 178 
Q 3153 47 2828 -22 
Q 2503 -91 2169 -91 
Q 1331 -91 842 396 
Q 353 884 353 1716 
Q 353 2575 817 3079 
Q 1281 3584 2069 3584 
Q 2775 3584 3186 3129 
Q 3597 2675 3597 1894 
z
M 3022 2063 
Q 3016 2534 2758 2815 
Q 2500 3097 2075 3097 
Q 1594 3097 1305 2825 
Q 1016 2553 972 2059 
L 3022 2063 
z
" transform="scale(0.015625)"/>
      <path id="DejaVuSans-6e" d="M 3513 2113 
L 3513 0 
L 2938 0 
L 2938 2094 
Q 2938 2591 2744 2837 
Q 2550 3084 2163 3084 
Q 1697 3084 1428 2787 
Q 1159 2491 1159 1978 
L 1159 0 
L 581 0 
L 581 3500 
L 1159 3500 
L 1159 2956 
Q 1366 3272 1645 3428 
Q 1925 3584 2291 3584 
Q 2894 3584 3203 3211 
Q 3513 2838 3513 2113 
z
" transform="scale(0.015625)"/>
      <path id="DejaVuSans-72" d="M 2631 2963 
Q 2534 3019 2420 3045 
Q 2306 3072 2169 3072 
Q 1681 3072 1420 2755 
Q 1159 2438 1159 1844 
L 1159 0 
L 581 0 
L 581 3500 
L 1159 3500 
L 1159 2956 
Q 1341 3275 1631 3429 
Q 1922 3584 2338 3584 
Q 2397 3584 2469 3576 
Q 2541 3569 2628 3553 
L 2631 2963 
z
" transform="scale(0.015625)"/>
      <path id="DejaVuSans-61" d="M 2194 1759 
Q 1497 1759 1228 1600 
Q 959 1441 959 1056 
Q 959 750 1161 570 
Q 1363 391 1709 391 
Q 2188 391 2477 730 
Q 2766 1069 2766 1631 
L 2766 1759 
L 2194 1759 
z
M 3341 1997 
L 3341 0 
L 2766 0 
L 2766 531 
Q 2569 213 2275 61 
Q 1981 -91 1556 -91 
Q 1019 -91 701 211 
Q 384 513 384 1019 
Q 384 1609 779 1909 
Q 1175 2209 1959 2209 
L 2766 2209 
L 2766 2266 
Q 2766 2663 2505 2880 
Q 2244 3097 1772 3097 
Q 1472 3097 1187 3025 
Q 903 2953 641 2809 
L 641 3341 
Q 956 3463 1253 3523 
Q 1550 3584 1831 3584 
Q 2591 3584 2966 3190 
Q 3341 2797 3341 1997 
z
" transform="scale(0.015625)"/>
      <path id="DejaVuSans-74" d="M 1172 4494 
L 1172 3500 
L 2356 3500 
L 2356 3053 
L 1172 3053 
L 1172 1153 
Q 1172 725 1289 603 
Q 1406 481 1766 481 
L 2356 481 
L 2356 0 
L 1766 0 
Q 1100 0 847 248 
Q 594 497 594 1153 
L 594 3053 
L 172 3053 
L 172 3500 
L 594 3500 
L 594 4494 
L 1172 4494 
z
" transform="scale(0.015625)"/>
      <path id="DejaVuSans-69" d="M 603 3500 
L 1178 3500 
L 1178 0 
L 603 0 
L 603 3500 
z
M 603 4863 
L 1178 4863 
L 1178 4134 
L 603 4134 
L 603 4863 
z
" transform="scale(0.015625)"/>
      <path id="DejaVuSans-76" d="M 191 3500 
L 800 3500 
L 1894 563 
L 2988 3500 
L 3597 3500 
L 2284 0 
L 1503 0 
L 191 3500 
z
" transform="scale(0.015625)"/>
      <path id="DejaVuSans-6d" d="M 3328 2828 
Q 3544 3216 3844 3400 
Q 4144 3584 4550 3584 
Q 5097 3584 5394 3201 
Q 5691 2819 5691 2113 
L 5691 0 
L 5113 0 
L 5113 2094 
Q 5113 2597 4934 2840 
Q 4756 3084 4391 3084 
Q 3944 3084 3684 2787 
Q 3425 2491 3425 1978 
L 3425 0 
L 2847 0 
L 2847 2094 
Q 2847 2600 2669 2842 
Q 2491 3084 2119 3084 
Q 1678 3084 1418 2786 
Q 1159 2488 1159 1978 
L 1159 0 
L 581 0 
L 581 3500 
L 1159 3500 
L 1159 2956 
Q 1356 3278 1631 3431 
Q 1906 3584 2284 3584 
Q 2666 3584 2933 3390 
Q 3200 3197 3328 2828 
z
" transform="scale(0.015625)"/>
      <path id="DejaVuSans-6f" d="M 1959 3097 
Q 1497 3097 1228 2736 
Q 959 2375 959 1747 
Q 959 1119 1226 758 
Q 1494 397 1959 397 
Q 2419 397 2687 759 
Q 2956 1122 2956 1747 
Q 2956 2369 2687 2733 
Q 2419 3097 1959 3097 
z
M 1959 3584 
Q 2709 3584 3137 3096 
Q 3566 2609 3566 1747 
Q 3566 888 3137 398 
Q 2709 -91 1959 -91 
Q 1206 -91 779 398 
Q 353 888 353 1747 
Q 353 2609 779 3096 
Q 1206 3584 1959 3584 
z
" transform="scale(0.015625)"/>
      <path id="DejaVuSans-64" d="M 2906 2969 
L 2906 4863 
L 3481 4863 
L 3481 0 
L 2906 0 
L 2906 525 
Q 2725 213 2448 61 
Q 2172 -91 1784 -91 
Q 1150 -91 751 415 
Q 353 922 353 1747 
Q 353 2572 751 3078 
Q 1150 3584 1784 3584 
Q 2172 3584 2448 3432 
Q 2725 3281 2906 2969 
z
M 947 1747 
Q 947 1113 1208 752 
Q 1469 391 1925 391 
Q 2381 391 2643 752 
Q 2906 1113 2906 1747 
Q 2906 2381 2643 2742 
Q 2381 3103 1925 3103 
Q 1469 3103 1208 2742 
Q 947 2381 947 1747 
z
" transform="scale(0.015625)"/>
      <path id="DejaVuSans-6c" d="M 603 4863 
L 1178 4863 
L 1178 0 
L 603 0 
L 603 4863 
z
" transform="scale(0.015625)"/>
      <path id="DejaVuSans-73" d="M 2834 3397 
L 2834 2853 
Q 2591 2978 2328 3040 
Q 2066 3103 1784 3103 
Q 1356 3103 1142 2972 
Q 928 2841 928 2578 
Q 928 2378 1081 2264 
Q 1234 2150 1697 2047 
L 1894 2003 
Q 2506 1872 2764 1633 
Q 3022 1394 3022 966 
Q 3022 478 2636 193 
Q 2250 -91 1575 -91 
Q 1294 -91 989 -36 
Q 684 19 347 128 
L 347 722 
Q 666 556 975 473 
Q 1284 391 1588 391 
Q 1994 391 2212 530 
Q 2431 669 2431 922 
Q 2431 1156 2273 1281 
Q 2116 1406 1581 1522 
L 1381 1569 
Q 847 1681 609 1914 
Q 372 2147 372 2553 
Q 372 3047 722 3315 
Q 1072 3584 1716 3584 
Q 2034 3584 2315 3537 
Q 2597 3491 2834 3397 
z
" transform="scale(0.015625)"/>
     </defs>
     <use xlink:href="#DejaVuSans-2022"/>
     <use xlink:href="#DejaVuSans-20" x="58.984375"/>
     <use xlink:href="#DejaVuSans-47" x="90.771484"/>
     <use xlink:href="#DejaVuSans-65" x="168.261719"/>
     <use xlink:href="#DejaVuSans-6e" x="229.785156"/>
     <use xlink:href="#DejaVuSans-65" x="293.164062"/>
     <use xlink:href="#DejaVuSans-72" x="354.6875"/>
     <use xlink:href="#DejaVuSans-61" x="395.800781"/>
     <use xlink:href="#DejaVuSans-74" x="457.080078"/>
     <use xlink:href="#DejaVuSans-69" x="496.289062"/>
     <use xlink:href="#DejaVuSans-76" x="524.072266"/>
     <use xlink:href="#DejaVuSans-65" x="583.251953"/>
     <use xlink:href="#DejaVuSans-20" x="644.775391"/>
     <use xlink:href="#DejaVuSans-6d" x="676.5625"/>
     <use xlink:href="#DejaVuSans-6f" x="773.974609"/>
     <use xlink:href="#DejaVuSans-64" x="835.15625"/>
     <use xlink:href="#DejaVuSans-65" x="898.632812"/>
     <use xlink:href="#DejaVuSans-6c" x="960.15625"/>
     <use xlink:href="#DejaVuSans-73" x="987.939453"/>
    </g>
    <!-- • Deep representation learning -->
    <g style="fill: #222222" transform="translate(28.067459 102.909743) scale(0.16 -0.16)">
     <defs>
      <path id="DejaVuSans-44" d="M 1259 4147 
L 1259 519 
L 2022 519 
Q 2988 519 3436 956 
Q 3884 1394 3884 2338 
Q 3884 3275 3436 3711 
Q 2988 4147 2022 4147 
L 1259 4147 
z
M 628 4666 
L 1925 4666 
Q 3281 4666 3915 4102 
Q 4550 3538 4550 2338 
Q 4550 1131 3912 565 
Q 3275 0 1925 0 
L 628 0 
L 628 4666 
z
" transform="scale(0.015625)"/>
      <path id="DejaVuSans-70" d="M 1159 525 
L 1159 -1331 
L 581 -1331 
L 581 3500 
L 1159 3500 
L 1159 2969 
Q 1341 3281 1617 3432 
Q 1894 3584 2278 3584 
Q 2916 3584 3314 3078 
Q 3713 2572 3713 1747 
Q 3713 922 3314 415 
Q 2916 -91 2278 -91 
Q 1894 -91 1617 61 
Q 1341 213 1159 525 
z
M 3116 1747 
Q 3116 2381 2855 2742 
Q 2594 3103 2138 3103 
Q 1681 3103 1420 2742 
Q 1159 2381 1159 1747 
Q 1159 1113 1420 752 
Q 1681 391 2138 391 
Q 2594 391 2855 752 
Q 3116 1113 3116 1747 
z
" transform="scale(0.015625)"/>
      <path id="DejaVuSans-67" d="M 2906 1791 
Q 2906 2416 2648 2759 
Q 2391 3103 1925 3103 
Q 1463 3103 1205 2759 
Q 947 2416 947 1791 
Q 947 1169 1205 825 
Q 1463 481 1925 481 
Q 2391 481 2648 825 
Q 2906 1169 2906 1791 
z
M 3481 434 
Q 3481 -459 3084 -895 
Q 2688 -1331 1869 -1331 
Q 1566 -1331 1297 -1286 
Q 1028 -1241 775 -1147 
L 775 -588 
Q 1028 -725 1275 -790 
Q 1522 -856 1778 -856 
Q 2344 -856 2625 -561 
Q 2906 -266 2906 331 
L 2906 616 
Q 2728 306 2450 153 
Q 2172 0 1784 0 
Q 1141 0 747 490 
Q 353 981 353 1791 
Q 353 2603 747 3093 
Q 1141 3584 1784 3584 
Q 2172 3584 2450 3431 
Q 2728 3278 2906 2969 
L 2906 3500 
L 3481 3500 
L 3481 434 
z
" transform="scale(0.015625)"/>
     </defs>
     <use xlink:href="#DejaVuSans-2022"/>
     <use xlink:href="#DejaVuSans-20" x="58.984375"/>
     <use xlink:href="#DejaVuSans-44" x="90.771484"/>
     <use xlink:href="#DejaVuSans-65" x="167.773438"/>
     <use xlink:href="#DejaVuSans-65" x="229.296875"/>
     <use xlink:href="#DejaVuSans-70" x="290.820312"/>
     <use xlink:href="#DejaVuSans-20" x="354.296875"/>
     <use xlink:href="#DejaVuSans-72" x="386.083984"/>
     <use xlink:href="#DejaVuSans-65" x="424.947266"/>
     <use xlink:href="#DejaVuSans-70" x="486.470703"/>
     <use xlink:href="#DejaVuSans-72" x="549.947266"/>
     <use xlink:href="#DejaVuSans-65" x="588.810547"/>
     <use xlink:href="#DejaVuSans-73" x="650.333984"/>
     <use xlink:href="#DejaVuSans-65" x="702.433594"/>
     <use xlink:href="#DejaVuSans-6e" x="763.957031"/>
     <use xlink:href="#DejaVuSans-74" x="827.335938"/>
     <use xlink:href="#DejaVuSans-61" x="866.544922"/>
     <use xlink:href="#DejaVuSans-74" x="927.824219"/>
     <use xlink:href="#DejaVuSans-69" x="967.033203"/>
     <use xlink:href="#DejaVuSans-6f" x="994.816406"/>
     <use xlink:href="#DejaVuSans-6e" x="1055.998047"/>
     <use xlink:href="#DejaVuSans-20" x="1119.376953"/>
     <use xlink:href="#DejaVuSans-6c" x="1151.164062"/>
     <use xlink:href="#DejaVuSans-65" x="1178.947266"/>
     <use xlink:href="#DejaVuSans-61" x="1240.470703"/>
     <use xlink:href="#DejaVuSans-72" x="1301.75"/>
     <use xlink:href="#DejaVuSans-6e" x="1341.113281"/>
     <use xlink:href="#DejaVuSans-69" x="1404.492188"/>
     <use xlink:href="#DejaVuSans-6e" x="1432.275391"/>
     <use xlink:href="#DejaVuSans-67" x="1495.654297"/>
    </g>
   </g>
   <g id="text_6">
    <!-- • Stochastic processes &amp; SDEs -->
    <g style="fill: #222222" transform="translate(586.492006 85.601118) scale(0.16 -0.16)">
     <defs>
      <path id="DejaVuSans-53" d="M 3425 4513 
L 3425 3897 
Q 3066 4069 2747 4153 
Q 2428 4238 2131 4238 
Q 1616 4238 1336 4038 
Q 1056 3838 1056 3469 
Q 1056 3159 1242 3001 
Q 1428 2844 1947 2747 
L 2328 2669 
Q 3034 2534 3370 2195 
Q 3706 1856 3706 1288 
Q 3706 609 3251 259 
Q 2797 -91 1919 -91 
Q 1588 -91 1214 -16 
Q 841 59 441 206 
L 441 856 
Q 825 641 1194 531 
Q 1563 422 1919 422 
Q 2459 422 2753 634 
Q 3047 847 3047 1241 
Q 3047 1584 2836 1778 
Q 2625 1972 2144 2069 
L 1759 2144 
Q 1053 2284 737 2584 
Q 422 2884 422 3419 
Q 422 4038 858 4394 
Q 1294 4750 2059 4750 
Q 2388 4750 2728 4690 
Q 3069 4631 3425 4513 
z
" transform="scale(0.015625)"/>
      <path id="DejaVuSans-63" d="M 3122 3366 
L 3122 2828 
Q 2878 2963 2633 3030 
Q 2388 3097 2138 3097 
Q 1578 3097 1268 2742 
Q 959 2388 959 1747 
Q 959 1106 1268 751 
Q 1578 397 2138 397 
Q 2388 397 2633 464 
Q 2878 531 3122 666 
L 3122 134 
Q 2881 22 2623 -34 
Q 2366 -91 2075 -91 
Q 1284 -91 818 406 
Q 353 903 353 1747 
Q 353 2603 823 3093 
Q 1294 3584 2113 3584 
Q 2378 3584 2631 3529 
Q 2884 3475 3122 3366 
z
" transform="scale(0.015625)"/>
      <path id="DejaVuSans-68" d="M 3513 2113 
L 3513 0 
L 2938 0 
L 2938 2094 
Q 2938 2591 2744 2837 
Q 2550 3084 2163 3084 
Q 1697 3084 1428 2787 
Q 1159 2491 1159 1978 
L 1159 0 
L 581 0 
L 581 4863 
L 1159 4863 
L 1159 2956 
Q 1366 3272 1645 3428 
Q 1925 3584 2291 3584 
Q 2894 3584 3203 3211 
Q 3513 2838 3513 2113 
z
" transform="scale(0.015625)"/>
      <path id="DejaVuSans-26" d="M 1556 2509 
Q 1272 2256 1139 2004 
Q 1006 1753 1006 1478 
Q 1006 1022 1337 719 
Q 1669 416 2169 416 
Q 2466 416 2725 514 
Q 2984 613 3213 813 
L 1556 2509 
z
M 1997 2859 
L 3584 1234 
Q 3769 1513 3872 1830 
Q 3975 2147 3994 2503 
L 4575 2503 
Q 4538 2091 4375 1687 
Q 4213 1284 3922 891 
L 4794 0 
L 4006 0 
L 3559 459 
Q 3234 181 2878 45 
Q 2522 -91 2113 -91 
Q 1359 -91 881 339 
Q 403 769 403 1441 
Q 403 1841 612 2192 
Q 822 2544 1241 2853 
Q 1091 3050 1012 3245 
Q 934 3441 934 3628 
Q 934 4134 1281 4442 
Q 1628 4750 2203 4750 
Q 2463 4750 2720 4694 
Q 2978 4638 3244 4525 
L 3244 3956 
Q 2972 4103 2725 4179 
Q 2478 4256 2266 4256 
Q 1938 4256 1733 4082 
Q 1528 3909 1528 3634 
Q 1528 3475 1620 3314 
Q 1713 3153 1997 2859 
z
" transform="scale(0.015625)"/>
      <path id="DejaVuSans-45" d="M 628 4666 
L 3578 4666 
L 3578 4134 
L 1259 4134 
L 1259 2753 
L 3481 2753 
L 3481 2222 
L 1259 2222 
L 1259 531 
L 3634 531 
L 3634 0 
L 628 0 
L 628 4666 
z
" transform="scale(0.015625)"/>
     </defs>
     <use xlink:href="#DejaVuSans-2022"/>
     <use xlink:href="#DejaVuSans-20" x="58.984375"/>
     <use xlink:href="#DejaVuSans-53" x="90.771484"/>
     <use xlink:href="#DejaVuSans-74" x="154.248047"/>
     <use xlink:href="#DejaVuSans-6f" x="193.457031"/>
     <use xlink:href="#DejaVuSans-63" x="254.638672"/>
     <use xlink:href="#DejaVuSans-68" x="309.619141"/>
     <use xlink:href="#DejaVuSans-61" x="372.998047"/>
     <use xlink:href="#DejaVuSans-73" x="434.277344"/>
     <use xlink:href="#DejaVuSans-74" x="486.376953"/>
     <use xlink:href="#DejaVuSans-69" x="525.585938"/>
     <use xlink:href="#DejaVuSans-63" x="553.369141"/>
     <use xlink:href="#DejaVuSans-20" x="608.349609"/>
     <use xlink:href="#DejaVuSans-70" x="640.136719"/>
     <use xlink:href="#DejaVuSans-72" x="703.613281"/>
     <use xlink:href="#DejaVuSans-6f" x="742.476562"/>
     <use xlink:href="#DejaVuSans-63" x="803.658203"/>
     <use xlink:href="#DejaVuSans-65" x="858.638672"/>
     <use xlink:href="#DejaVuSans-73" x="920.162109"/>
     <use xlink:href="#DejaVuSans-73" x="972.261719"/>
     <use xlink:href="#DejaVuSans-65" x="1024.361328"/>
     <use xlink:href="#DejaVuSans-73" x="1085.884766"/>
     <use xlink:href="#DejaVuSans-20" x="1137.984375"/>
     <use xlink:href="#DejaVuSans-26" x="1169.771484"/>
     <use xlink:href="#DejaVuSans-20" x="1247.75"/>
     <use xlink:href="#DejaVuSans-53" x="1279.537109"/>
     <use xlink:href="#DejaVuSans-44" x="1343.013672"/>
     <use xlink:href="#DejaVuSans-45" x="1420.015625"/>
     <use xlink:href="#DejaVuSans-73" x="1483.199219"/>
    </g>
    <!-- • Rough path theory -->
    <g style="fill: #222222" transform="translate(586.492006 102.909743) scale(0.16 -0.16)">
     <defs>
      <path id="DejaVuSans-52" d="M 2841 2188 
Q 3044 2119 3236 1894 
Q 3428 1669 3622 1275 
L 4263 0 
L 3584 0 
L 2988 1197 
Q 2756 1666 2539 1819 
Q 2322 1972 1947 1972 
L 1259 1972 
L 1259 0 
L 628 0 
L 628 4666 
L 2053 4666 
Q 2853 4666 3247 4331 
Q 3641 3997 3641 3322 
Q 3641 2881 3436 2590 
Q 3231 2300 2841 2188 
z
M 1259 4147 
L 1259 2491 
L 2053 2491 
Q 2509 2491 2742 2702 
Q 2975 2913 2975 3322 
Q 2975 3731 2742 3939 
Q 2509 4147 2053 4147 
L 1259 4147 
z
" transform="scale(0.015625)"/>
      <path id="DejaVuSans-75" d="M 544 1381 
L 544 3500 
L 1119 3500 
L 1119 1403 
Q 1119 906 1312 657 
Q 1506 409 1894 409 
Q 2359 409 2629 706 
Q 2900 1003 2900 1516 
L 2900 3500 
L 3475 3500 
L 3475 0 
L 2900 0 
L 2900 538 
Q 2691 219 2414 64 
Q 2138 -91 1772 -91 
Q 1169 -91 856 284 
Q 544 659 544 1381 
z
M 1991 3584 
L 1991 3584 
z
" transform="scale(0.015625)"/>
      <path id="DejaVuSans-79" d="M 2059 -325 
Q 1816 -950 1584 -1140 
Q 1353 -1331 966 -1331 
L 506 -1331 
L 506 -850 
L 844 -850 
Q 1081 -850 1212 -737 
Q 1344 -625 1503 -206 
L 1606 56 
L 191 3500 
L 800 3500 
L 1894 763 
L 2988 3500 
L 3597 3500 
L 2059 -325 
z
" transform="scale(0.015625)"/>
     </defs>
     <use xlink:href="#DejaVuSans-2022"/>
     <use xlink:href="#DejaVuSans-20" x="58.984375"/>
     <use xlink:href="#DejaVuSans-52" x="90.771484"/>
     <use xlink:href="#DejaVuSans-6f" x="155.753906"/>
     <use xlink:href="#DejaVuSans-75" x="216.935547"/>
     <use xlink:href="#DejaVuSans-67" x="280.314453"/>
     <use xlink:href="#DejaVuSans-68" x="343.791016"/>
     <use xlink:href="#DejaVuSans-20" x="407.169922"/>
     <use xlink:href="#DejaVuSans-70" x="438.957031"/>
     <use xlink:href="#DejaVuSans-61" x="502.433594"/>
     <use xlink:href="#DejaVuSans-74" x="563.712891"/>
     <use xlink:href="#DejaVuSans-68" x="602.921875"/>
     <use xlink:href="#DejaVuSans-20" x="666.300781"/>
     <use xlink:href="#DejaVuSans-74" x="698.087891"/>
     <use xlink:href="#DejaVuSans-68" x="737.296875"/>
     <use xlink:href="#DejaVuSans-65" x="800.675781"/>
     <use xlink:href="#DejaVuSans-6f" x="862.199219"/>
     <use xlink:href="#DejaVuSans-72" x="923.380859"/>
     <use xlink:href="#DejaVuSans-79" x="964.494141"/>
    </g>
   </g>
   <g id="text_7">
    <!-- • Hamiltonian graph theory -->
    <g style="fill: #222222" transform="translate(1116.470551 85.601118) scale(0.16 -0.16)">
     <defs>
      <path id="DejaVuSans-48" d="M 628 4666 
L 1259 4666 
L 1259 2753 
L 3553 2753 
L 3553 4666 
L 4184 4666 
L 4184 0 
L 3553 0 
L 3553 2222 
L 1259 2222 
L 1259 0 
L 628 0 
L 628 4666 
z
" transform="scale(0.015625)"/>
     </defs>
     <use xlink:href="#DejaVuSans-2022"/>
     <use xlink:href="#DejaVuSans-20" x="58.984375"/>
     <use xlink:href="#DejaVuSans-48" x="90.771484"/>
     <use xlink:href="#DejaVuSans-61" x="165.966797"/>
     <use xlink:href="#DejaVuSans-6d" x="227.246094"/>
     <use xlink:href="#DejaVuSans-69" x="324.658203"/>
     <use xlink:href="#DejaVuSans-6c" x="352.441406"/>
     <use xlink:href="#DejaVuSans-74" x="380.224609"/>
     <use xlink:href="#DejaVuSans-6f" x="419.433594"/>
     <use xlink:href="#DejaVuSans-6e" x="480.615234"/>
     <use xlink:href="#DejaVuSans-69" x="543.994141"/>
     <use xlink:href="#DejaVuSans-61" x="571.777344"/>
     <use xlink:href="#DejaVuSans-6e" x="633.056641"/>
     <use xlink:href="#DejaVuSans-20" x="696.435547"/>
     <use xlink:href="#DejaVuSans-67" x="728.222656"/>
     <use xlink:href="#DejaVuSans-72" x="791.699219"/>
     <use xlink:href="#DejaVuSans-61" x="832.8125"/>
     <use xlink:href="#DejaVuSans-70" x="894.091797"/>
     <use xlink:href="#DejaVuSans-68" x="957.568359"/>
     <use xlink:href="#DejaVuSans-20" x="1020.947266"/>
     <use xlink:href="#DejaVuSans-74" x="1052.734375"/>
     <use xlink:href="#DejaVuSans-68" x="1091.943359"/>
     <use xlink:href="#DejaVuSans-65" x="1155.322266"/>
     <use xlink:href="#DejaVuSans-6f" x="1216.845703"/>
     <use xlink:href="#DejaVuSans-72" x="1278.027344"/>
     <use xlink:href="#DejaVuSans-79" x="1319.140625"/>
    </g>
    <!-- • Cycle decompositions -->
    <g style="fill: #222222" transform="translate(1116.470551 102.909743) scale(0.16 -0.16)">
     <defs>
      <path id="DejaVuSans-43" d="M 4122 4306 
L 4122 3641 
Q 3803 3938 3442 4084 
Q 3081 4231 2675 4231 
Q 1875 4231 1450 3742 
Q 1025 3253 1025 2328 
Q 1025 1406 1450 917 
Q 1875 428 2675 428 
Q 3081 428 3442 575 
Q 3803 722 4122 1019 
L 4122 359 
Q 3791 134 3420 21 
Q 3050 -91 2638 -91 
Q 1578 -91 968 557 
Q 359 1206 359 2328 
Q 359 3453 968 4101 
Q 1578 4750 2638 4750 
Q 3056 4750 3426 4639 
Q 3797 4528 4122 4306 
z
" transform="scale(0.015625)"/>
     </defs>
     <use xlink:href="#DejaVuSans-2022"/>
     <use xlink:href="#DejaVuSans-20" x="58.984375"/>
     <use xlink:href="#DejaVuSans-43" x="90.771484"/>
     <use xlink:href="#DejaVuSans-79" x="160.595703"/>
     <use xlink:href="#DejaVuSans-63" x="219.775391"/>
     <use xlink:href="#DejaVuSans-6c" x="274.755859"/>
     <use xlink:href="#DejaVuSans-65" x="302.539062"/>
     <use xlink:href="#DejaVuSans-20" x="364.0625"/>
     <use xlink:href="#DejaVuSans-64" x="395.849609"/>
     <use xlink:href="#DejaVuSans-65" x="459.326172"/>
     <use xlink:href="#DejaVuSans-63" x="520.849609"/>
     <use xlink:href="#DejaVuSans-6f" x="575.830078"/>
     <use xlink:href="#DejaVuSans-6d" x="637.011719"/>
     <use xlink:href="#DejaVuSans-70" x="734.423828"/>
     <use xlink:href="#DejaVuSans-6f" x="797.900391"/>
     <use xlink:href="#DejaVuSans-73" x="859.082031"/>
     <use xlink:href="#DejaVuSans-69" x="911.181641"/>
     <use xlink:href="#DejaVuSans-74" x="938.964844"/>
     <use xlink:href="#DejaVuSans-69" x="978.173828"/>
     <use xlink:href="#DejaVuSans-6f" x="1005.957031"/>
     <use xlink:href="#DejaVuSans-6e" x="1067.138672"/>
     <use xlink:href="#DejaVuSans-73" x="1130.517578"/>
    </g>
    <!-- • Directed graphs -->
    <g style="fill: #222222" transform="translate(1116.470551 120.218368) scale(0.16 -0.16)">
     <use xlink:href="#DejaVuSans-2022"/>
     <use xlink:href="#DejaVuSans-20" x="58.984375"/>
     <use xlink:href="#DejaVuSans-44" x="90.771484"/>
     <use xlink:href="#DejaVuSans-69" x="167.773438"/>
     <use xlink:href="#DejaVuSans-72" x="195.556641"/>
     <use xlink:href="#DejaVuSans-65" x="234.419922"/>
     <use xlink:href="#DejaVuSans-63" x="295.943359"/>
     <use xlink:href="#DejaVuSans-74" x="350.923828"/>
     <use xlink:href="#DejaVuSans-65" x="390.132812"/>
     <use xlink:href="#DejaVuSans-64" x="451.65625"/>
     <use xlink:href="#DejaVuSans-20" x="515.132812"/>
     <use xlink:href="#DejaVuSans-67" x="546.919922"/>
     <use xlink:href="#DejaVuSans-72" x="610.396484"/>
     <use xlink:href="#DejaVuSans-61" x="651.509766"/>
     <use xlink:href="#DejaVuSans-70" x="712.789062"/>
     <use xlink:href="#DejaVuSans-68" x="776.265625"/>
     <use xlink:href="#DejaVuSans-73" x="839.644531"/>
    </g>
   </g>
   <g id="text_8">
    <!-- • Combinatorial optimization -->
    <g style="fill: #222222" transform="translate(1580.518291 85.601118) scale(0.16 -0.16)">
     <defs>
      <path id="DejaVuSans-62" d="M 3116 1747 
Q 3116 2381 2855 2742 
Q 2594 3103 2138 3103 
Q 1681 3103 1420 2742 
Q 1159 2381 1159 1747 
Q 1159 1113 1420 752 
Q 1681 391 2138 391 
Q 2594 391 2855 752 
Q 3116 1113 3116 1747 
z
M 1159 2969 
Q 1341 3281 1617 3432 
Q 1894 3584 2278 3584 
Q 2916 3584 3314 3078 
Q 3713 2572 3713 1747 
Q 3713 922 3314 415 
Q 2916 -91 2278 -91 
Q 1894 -91 1617 61 
Q 1341 213 1159 525 
L 1159 0 
L 581 0 
L 581 4863 
L 1159 4863 
L 1159 2969 
z
" transform="scale(0.015625)"/>
      <path id="DejaVuSans-7a" d="M 353 3500 
L 3084 3500 
L 3084 2975 
L 922 459 
L 3084 459 
L 3084 0 
L 275 0 
L 275 525 
L 2438 3041 
L 353 3041 
L 353 3500 
z
" transform="scale(0.015625)"/>
     </defs>
     <use xlink:href="#DejaVuSans-2022"/>
     <use xlink:href="#DejaVuSans-20" x="58.984375"/>
     <use xlink:href="#DejaVuSans-43" x="90.771484"/>
     <use xlink:href="#DejaVuSans-6f" x="160.595703"/>
     <use xlink:href="#DejaVuSans-6d" x="221.777344"/>
     <use xlink:href="#DejaVuSans-62" x="319.189453"/>
     <use xlink:href="#DejaVuSans-69" x="382.666016"/>
     <use xlink:href="#DejaVuSans-6e" x="410.449219"/>
     <use xlink:href="#DejaVuSans-61" x="473.828125"/>
     <use xlink:href="#DejaVuSans-74" x="535.107422"/>
     <use xlink:href="#DejaVuSans-6f" x="574.316406"/>
     <use xlink:href="#DejaVuSans-72" x="635.498047"/>
     <use xlink:href="#DejaVuSans-69" x="676.611328"/>
     <use xlink:href="#DejaVuSans-61" x="704.394531"/>
     <use xlink:href="#DejaVuSans-6c" x="765.673828"/>
     <use xlink:href="#DejaVuSans-20" x="793.457031"/>
     <use xlink:href="#DejaVuSans-6f" x="825.244141"/>
     <use xlink:href="#DejaVuSans-70" x="886.425781"/>
     <use xlink:href="#DejaVuSans-74" x="949.902344"/>
     <use xlink:href="#DejaVuSans-69" x="989.111328"/>
     <use xlink:href="#DejaVuSans-6d" x="1016.894531"/>
     <use xlink:href="#DejaVuSans-69" x="1114.306641"/>
     <use xlink:href="#DejaVuSans-7a" x="1142.089844"/>
     <use xlink:href="#DejaVuSans-61" x="1194.580078"/>
     <use xlink:href="#DejaVuSans-74" x="1255.859375"/>
     <use xlink:href="#DejaVuSans-69" x="1295.068359"/>
     <use xlink:href="#DejaVuSans-6f" x="1322.851562"/>
     <use xlink:href="#DejaVuSans-6e" x="1384.033203"/>
    </g>
    <!-- • Integer programming -->
    <g style="fill: #222222" transform="translate(1580.518291 102.909743) scale(0.16 -0.16)">
     <defs>
      <path id="DejaVuSans-49" d="M 628 4666 
L 1259 4666 
L 1259 0 
L 628 0 
L 628 4666 
z
" transform="scale(0.015625)"/>
     </defs>
     <use xlink:href="#DejaVuSans-2022"/>
     <use xlink:href="#DejaVuSans-20" x="58.984375"/>
     <use xlink:href="#DejaVuSans-49" x="90.771484"/>
     <use xlink:href="#DejaVuSans-6e" x="120.263672"/>
     <use xlink:href="#DejaVuSans-74" x="183.642578"/>
     <use xlink:href="#DejaVuSans-65" x="222.851562"/>
     <use xlink:href="#DejaVuSans-67" x="284.375"/>
     <use xlink:href="#DejaVuSans-65" x="347.851562"/>
     <use xlink:href="#DejaVuSans-72" x="409.375"/>
     <use xlink:href="#DejaVuSans-20" x="450.488281"/>
     <use xlink:href="#DejaVuSans-70" x="482.275391"/>
     <use xlink:href="#DejaVuSans-72" x="545.751953"/>
     <use xlink:href="#DejaVuSans-6f" x="584.615234"/>
     <use xlink:href="#DejaVuSans-67" x="645.796875"/>
     <use xlink:href="#DejaVuSans-72" x="709.273438"/>
     <use xlink:href="#DejaVuSans-61" x="750.386719"/>
     <use xlink:href="#DejaVuSans-6d" x="811.666016"/>
     <use xlink:href="#DejaVuSans-6d" x="909.078125"/>
     <use xlink:href="#DejaVuSans-69" x="1006.490234"/>
     <use xlink:href="#DejaVuSans-6e" x="1034.273438"/>
     <use xlink:href="#DejaVuSans-67" x="1097.652344"/>
    </g>
    <!-- • Operations &amp; policy models -->
    <g style="fill: #222222" transform="translate(1580.518291 120.218368) scale(0.16 -0.16)">
     <defs>
      <path id="DejaVuSans-4f" d="M 2522 4238 
Q 1834 4238 1429 3725 
Q 1025 3213 1025 2328 
Q 1025 1447 1429 934 
Q 1834 422 2522 422 
Q 3209 422 3611 934 
Q 4013 1447 4013 2328 
Q 4013 3213 3611 3725 
Q 3209 4238 2522 4238 
z
M 2522 4750 
Q 3503 4750 4090 4092 
Q 4678 3434 4678 2328 
Q 4678 1225 4090 567 
Q 3503 -91 2522 -91 
Q 1538 -91 948 565 
Q 359 1222 359 2328 
Q 359 3434 948 4092 
Q 1538 4750 2522 4750 
z
" transform="scale(0.015625)"/>
     </defs>
     <use xlink:href="#DejaVuSans-2022"/>
     <use xlink:href="#DejaVuSans-20" x="58.984375"/>
     <use xlink:href="#DejaVuSans-4f" x="90.771484"/>
     <use xlink:href="#DejaVuSans-70" x="169.482422"/>
     <use xlink:href="#DejaVuSans-65" x="232.958984"/>
     <use xlink:href="#DejaVuSans-72" x="294.482422"/>
     <use xlink:href="#DejaVuSans-61" x="335.595703"/>
     <use xlink:href="#DejaVuSans-74" x="396.875"/>
     <use xlink:href="#DejaVuSans-69" x="436.083984"/>
     <use xlink:href="#DejaVuSans-6f" x="463.867188"/>
     <use xlink:href="#DejaVuSans-6e" x="525.048828"/>
     <use xlink:href="#DejaVuSans-73" x="588.427734"/>
     <use xlink:href="#DejaVuSans-20" x="640.527344"/>
     <use xlink:href="#DejaVuSans-26" x="672.314453"/>
     <use xlink:href="#DejaVuSans-20" x="750.292969"/>
     <use xlink:href="#DejaVuSans-70" x="782.080078"/>
     <use xlink:href="#DejaVuSans-6f" x="845.556641"/>
     <use xlink:href="#DejaVuSans-6c" x="906.738281"/>
     <use xlink:href="#DejaVuSans-69" x="934.521484"/>
     <use xlink:href="#DejaVuSans-63" x="962.304688"/>
     <use xlink:href="#DejaVuSans-79" x="1017.285156"/>
     <use xlink:href="#DejaVuSans-20" x="1076.464844"/>
     <use xlink:href="#DejaVuSans-6d" x="1108.251953"/>
     <use xlink:href="#DejaVuSans-6f" x="1205.664062"/>
     <use xlink:href="#DejaVuSans-64" x="1266.845703"/>
     <use xlink:href="#DejaVuSans-65" x="1330.322266"/>
     <use xlink:href="#DejaVuSans-6c" x="1391.845703"/>
     <use xlink:href="#DejaVuSans-73" x="1419.628906"/>
    </g>
   </g>
   <g id="text_9">
    <!-- • Statistical learning theory -->
    <g style="fill: #222222" transform="translate(304.32715 68.646375) scale(0.16 -0.16)">
     <use xlink:href="#DejaVuSans-2022"/>
     <use xlink:href="#DejaVuSans-20" x="58.984375"/>
     <use xlink:href="#DejaVuSans-53" x="90.771484"/>
     <use xlink:href="#DejaVuSans-74" x="154.248047"/>
     <use xlink:href="#DejaVuSans-61" x="193.457031"/>
     <use xlink:href="#DejaVuSans-74" x="254.736328"/>
     <use xlink:href="#DejaVuSans-69" x="293.945312"/>
     <use xlink:href="#DejaVuSans-73" x="321.728516"/>
     <use xlink:href="#DejaVuSans-74" x="373.828125"/>
     <use xlink:href="#DejaVuSans-69" x="413.037109"/>
     <use xlink:href="#DejaVuSans-63" x="440.820312"/>
     <use xlink:href="#DejaVuSans-61" x="495.800781"/>
     <use xlink:href="#DejaVuSans-6c" x="557.080078"/>
     <use xlink:href="#DejaVuSans-20" x="584.863281"/>
     <use xlink:href="#DejaVuSans-6c" x="616.650391"/>
     <use xlink:href="#DejaVuSans-65" x="644.433594"/>
     <use xlink:href="#DejaVuSans-61" x="705.957031"/>
     <use xlink:href="#DejaVuSans-72" x="767.236328"/>
     <use xlink:href="#DejaVuSans-6e" x="806.599609"/>
     <use xlink:href="#DejaVuSans-69" x="869.978516"/>
     <use xlink:href="#DejaVuSans-6e" x="897.761719"/>
     <use xlink:href="#DejaVuSans-67" x="961.140625"/>
     <use xlink:href="#DejaVuSans-20" x="1024.617188"/>
     <use xlink:href="#DejaVuSans-74" x="1056.404297"/>
     <use xlink:href="#DejaVuSans-68" x="1095.613281"/>
     <use xlink:href="#DejaVuSans-65" x="1158.992188"/>
     <use xlink:href="#DejaVuSans-6f" x="1220.515625"/>
     <use xlink:href="#DejaVuSans-72" x="1281.697266"/>
     <use xlink:href="#DejaVuSans-79" x="1322.810547"/>
    </g>
    <!-- • Probabilistic machine learning -->
    <g style="fill: #222222" transform="translate(304.32715 85.955) scale(0.16 -0.16)">
     <defs>
      <path id="DejaVuSans-50" d="M 1259 4147 
L 1259 2394 
L 2053 2394 
Q 2494 2394 2734 2622 
Q 2975 2850 2975 3272 
Q 2975 3691 2734 3919 
Q 2494 4147 2053 4147 
L 1259 4147 
z
M 628 4666 
L 2053 4666 
Q 2838 4666 3239 4311 
Q 3641 3956 3641 3272 
Q 3641 2581 3239 2228 
Q 2838 1875 2053 1875 
L 1259 1875 
L 1259 0 
L 628 0 
L 628 4666 
z
" transform="scale(0.015625)"/>
     </defs>
     <use xlink:href="#DejaVuSans-2022"/>
     <use xlink:href="#DejaVuSans-20" x="58.984375"/>
     <use xlink:href="#DejaVuSans-50" x="90.771484"/>
     <use xlink:href="#DejaVuSans-72" x="149.324219"/>
     <use xlink:href="#DejaVuSans-6f" x="188.1875"/>
     <use xlink:href="#DejaVuSans-62" x="249.369141"/>
     <use xlink:href="#DejaVuSans-61" x="312.845703"/>
     <use xlink:href="#DejaVuSans-62" x="374.125"/>
     <use xlink:href="#DejaVuSans-69" x="437.601562"/>
     <use xlink:href="#DejaVuSans-6c" x="465.384766"/>
     <use xlink:href="#DejaVuSans-69" x="493.167969"/>
     <use xlink:href="#DejaVuSans-73" x="520.951172"/>
     <use xlink:href="#DejaVuSans-74" x="573.050781"/>
     <use xlink:href="#DejaVuSans-69" x="612.259766"/>
     <use xlink:href="#DejaVuSans-63" x="640.042969"/>
     <use xlink:href="#DejaVuSans-20" x="695.023438"/>
     <use xlink:href="#DejaVuSans-6d" x="726.810547"/>
     <use xlink:href="#DejaVuSans-61" x="824.222656"/>
     <use xlink:href="#DejaVuSans-63" x="885.501953"/>
     <use xlink:href="#DejaVuSans-68" x="940.482422"/>
     <use xlink:href="#DejaVuSans-69" x="1003.861328"/>
     <use xlink:href="#DejaVuSans-6e" x="1031.644531"/>
     <use xlink:href="#DejaVuSans-65" x="1095.023438"/>
     <use xlink:href="#DejaVuSans-20" x="1156.546875"/>
     <use xlink:href="#DejaVuSans-6c" x="1188.333984"/>
     <use xlink:href="#DejaVuSans-65" x="1216.117188"/>
     <use xlink:href="#DejaVuSans-61" x="1277.640625"/>
     <use xlink:href="#DejaVuSans-72" x="1338.919922"/>
     <use xlink:href="#DejaVuSans-6e" x="1378.283203"/>
     <use xlink:href="#DejaVuSans-69" x="1441.662109"/>
     <use xlink:href="#DejaVuSans-6e" x="1469.445312"/>
     <use xlink:href="#DejaVuSans-67" x="1532.824219"/>
    </g>
    <!-- • Diffusion models -->
    <g style="fill: #222222" transform="translate(304.32715 103.263625) scale(0.16 -0.16)">
     <defs>
      <path id="DejaVuSans-66" d="M 2375 4863 
L 2375 4384 
L 1825 4384 
Q 1516 4384 1395 4259 
Q 1275 4134 1275 3809 
L 1275 3500 
L 2222 3500 
L 2222 3053 
L 1275 3053 
L 1275 0 
L 697 0 
L 697 3053 
L 147 3053 
L 147 3500 
L 697 3500 
L 697 3744 
Q 697 4328 969 4595 
Q 1241 4863 1831 4863 
L 2375 4863 
z
" transform="scale(0.015625)"/>
     </defs>
     <use xlink:href="#DejaVuSans-2022"/>
     <use xlink:href="#DejaVuSans-20" x="58.984375"/>
     <use xlink:href="#DejaVuSans-44" x="90.771484"/>
     <use xlink:href="#DejaVuSans-69" x="167.773438"/>
     <use xlink:href="#DejaVuSans-66" x="195.556641"/>
     <use xlink:href="#DejaVuSans-66" x="230.761719"/>
     <use xlink:href="#DejaVuSans-75" x="265.966797"/>
     <use xlink:href="#DejaVuSans-73" x="329.345703"/>
     <use xlink:href="#DejaVuSans-69" x="381.445312"/>
     <use xlink:href="#DejaVuSans-6f" x="409.228516"/>
     <use xlink:href="#DejaVuSans-6e" x="470.410156"/>
     <use xlink:href="#DejaVuSans-20" x="533.789062"/>
     <use xlink:href="#DejaVuSans-6d" x="565.576172"/>
     <use xlink:href="#DejaVuSans-6f" x="662.988281"/>
     <use xlink:href="#DejaVuSans-64" x="724.169922"/>
     <use xlink:href="#DejaVuSans-65" x="787.646484"/>
     <use xlink:href="#DejaVuSans-6c" x="849.169922"/>
     <use xlink:href="#DejaVuSans-73" x="876.953125"/>
    </g>
   </g>
   <g id="text_10">
    <!-- • Random graphs -->
    <g style="fill: #222222" transform="translate(859.633575 68.646375) scale(0.16 -0.16)">
     <use xlink:href="#DejaVuSans-2022"/>
     <use xlink:href="#DejaVuSans-20" x="58.984375"/>
     <use xlink:href="#DejaVuSans-52" x="90.771484"/>
     <use xlink:href="#DejaVuSans-61" x="158.003906"/>
     <use xlink:href="#DejaVuSans-6e" x="219.283203"/>
     <use xlink:href="#DejaVuSans-64" x="282.662109"/>
     <use xlink:href="#DejaVuSans-6f" x="346.138672"/>
     <use xlink:href="#DejaVuSans-6d" x="407.320312"/>
     <use xlink:href="#DejaVuSans-20" x="504.732422"/>
     <use xlink:href="#DejaVuSans-67" x="536.519531"/>
     <use xlink:href="#DejaVuSans-72" x="599.996094"/>
     <use xlink:href="#DejaVuSans-61" x="641.109375"/>
     <use xlink:href="#DejaVuSans-70" x="702.388672"/>
     <use xlink:href="#DejaVuSans-68" x="765.865234"/>
     <use xlink:href="#DejaVuSans-73" x="829.244141"/>
    </g>
    <!-- • Graph limits &amp; graphons -->
    <g style="fill: #222222" transform="translate(859.633575 85.955) scale(0.16 -0.16)">
     <use xlink:href="#DejaVuSans-2022"/>
     <use xlink:href="#DejaVuSans-20" x="58.984375"/>
     <use xlink:href="#DejaVuSans-47" x="90.771484"/>
     <use xlink:href="#DejaVuSans-72" x="168.261719"/>
     <use xlink:href="#DejaVuSans-61" x="209.375"/>
     <use xlink:href="#DejaVuSans-70" x="270.654297"/>
     <use xlink:href="#DejaVuSans-68" x="334.130859"/>
     <use xlink:href="#DejaVuSans-20" x="397.509766"/>
     <use xlink:href="#DejaVuSans-6c" x="429.296875"/>
     <use xlink:href="#DejaVuSans-69" x="457.080078"/>
     <use xlink:href="#DejaVuSans-6d" x="484.863281"/>
     <use xlink:href="#DejaVuSans-69" x="582.275391"/>
     <use xlink:href="#DejaVuSans-74" x="610.058594"/>
     <use xlink:href="#DejaVuSans-73" x="649.267578"/>
     <use xlink:href="#DejaVuSans-20" x="701.367188"/>
     <use xlink:href="#DejaVuSans-26" x="733.154297"/>
     <use xlink:href="#DejaVuSans-20" x="811.132812"/>
     <use xlink:href="#DejaVuSans-67" x="842.919922"/>
     <use xlink:href="#DejaVuSans-72" x="906.396484"/>
     <use xlink:href="#DejaVuSans-61" x="947.509766"/>
     <use xlink:href="#DejaVuSans-70" x="1008.789062"/>
     <use xlink:href="#DejaVuSans-68" x="1072.265625"/>
     <use xlink:href="#DejaVuSans-6f" x="1135.644531"/>
     <use xlink:href="#DejaVuSans-6e" x="1196.826172"/>
     <use xlink:href="#DejaVuSans-73" x="1260.205078"/>
    </g>
    <!-- • Probabilistic combinatorics -->
    <g style="fill: #222222" transform="translate(859.633575 103.263625) scale(0.16 -0.16)">
     <use xlink:href="#DejaVuSans-2022"/>
     <use xlink:href="#DejaVuSans-20" x="58.984375"/>
     <use xlink:href="#DejaVuSans-50" x="90.771484"/>
     <use xlink:href="#DejaVuSans-72" x="149.324219"/>
     <use xlink:href="#DejaVuSans-6f" x="188.1875"/>
     <use xlink:href="#DejaVuSans-62" x="249.369141"/>
     <use xlink:href="#DejaVuSans-61" x="312.845703"/>
     <use xlink:href="#DejaVuSans-62" x="374.125"/>
     <use xlink:href="#DejaVuSans-69" x="437.601562"/>
     <use xlink:href="#DejaVuSans-6c" x="465.384766"/>
     <use xlink:href="#DejaVuSans-69" x="493.167969"/>
     <use xlink:href="#DejaVuSans-73" x="520.951172"/>
     <use xlink:href="#DejaVuSans-74" x="573.050781"/>
     <use xlink:href="#DejaVuSans-69" x="612.259766"/>
     <use xlink:href="#DejaVuSans-63" x="640.042969"/>
     <use xlink:href="#DejaVuSans-20" x="695.023438"/>
     <use xlink:href="#DejaVuSans-63" x="726.810547"/>
     <use xlink:href="#DejaVuSans-6f" x="781.791016"/>
     <use xlink:href="#DejaVuSans-6d" x="842.972656"/>
     <use xlink:href="#DejaVuSans-62" x="940.384766"/>
     <use xlink:href="#DejaVuSans-69" x="1003.861328"/>
     <use xlink:href="#DejaVuSans-6e" x="1031.644531"/>
     <use xlink:href="#DejaVuSans-61" x="1095.023438"/>
     <use xlink:href="#DejaVuSans-74" x="1156.302734"/>
     <use xlink:href="#DejaVuSans-6f" x="1195.511719"/>
     <use xlink:href="#DejaVuSans-72" x="1256.693359"/>
     <use xlink:href="#DejaVuSans-69" x="1297.806641"/>
     <use xlink:href="#DejaVuSans-63" x="1325.589844"/>
     <use xlink:href="#DejaVuSans-73" x="1380.570312"/>
    </g>
   </g>
   <g id="text_11">
    <!-- • Graph algorithms -->
    <g style="fill: #222222" transform="translate(1364.975571 68.646375) scale(0.16 -0.16)">
     <use xlink:href="#DejaVuSans-2022"/>
     <use xlink:href="#DejaVuSans-20" x="58.984375"/>
     <use xlink:href="#DejaVuSans-47" x="90.771484"/>
     <use xlink:href="#DejaVuSans-72" x="168.261719"/>
     <use xlink:href="#DejaVuSans-61" x="209.375"/>
     <use xlink:href="#DejaVuSans-70" x="270.654297"/>
     <use xlink:href="#DejaVuSans-68" x="334.130859"/>
     <use xlink:href="#DejaVuSans-20" x="397.509766"/>
     <use xlink:href="#DejaVuSans-61" x="429.296875"/>
     <use xlink:href="#DejaVuSans-6c" x="490.576172"/>
     <use xlink:href="#DejaVuSans-67" x="518.359375"/>
     <use xlink:href="#DejaVuSans-6f" x="581.835938"/>
     <use xlink:href="#DejaVuSans-72" x="643.017578"/>
     <use xlink:href="#DejaVuSans-69" x="684.130859"/>
     <use xlink:href="#DejaVuSans-74" x="711.914062"/>
     <use xlink:href="#DejaVuSans-68" x="751.123047"/>
     <use xlink:href="#DejaVuSans-6d" x="814.501953"/>
     <use xlink:href="#DejaVuSans-73" x="911.914062"/>
    </g>
    <!-- • Graph optimization -->
    <g style="fill: #222222" transform="translate(1364.975571 85.955) scale(0.16 -0.16)">
     <use xlink:href="#DejaVuSans-2022"/>
     <use xlink:href="#DejaVuSans-20" x="58.984375"/>
     <use xlink:href="#DejaVuSans-47" x="90.771484"/>
     <use xlink:href="#DejaVuSans-72" x="168.261719"/>
     <use xlink:href="#DejaVuSans-61" x="209.375"/>
     <use xlink:href="#DejaVuSans-70" x="270.654297"/>
     <use xlink:href="#DejaVuSans-68" x="334.130859"/>
     <use xlink:href="#DejaVuSans-20" x="397.509766"/>
     <use xlink:href="#DejaVuSans-6f" x="429.296875"/>
     <use xlink:href="#DejaVuSans-70" x="490.478516"/>
     <use xlink:href="#DejaVuSans-74" x="553.955078"/>
     <use xlink:href="#DejaVuSans-69" x="593.164062"/>
     <use xlink:href="#DejaVuSans-6d" x="620.947266"/>
     <use xlink:href="#DejaVuSans-69" x="718.359375"/>
     <use xlink:href="#DejaVuSans-7a" x="746.142578"/>
     <use xlink:href="#DejaVuSans-61" x="798.632812"/>
     <use xlink:href="#DejaVuSans-74" x="859.912109"/>
     <use xlink:href="#DejaVuSans-69" x="899.121094"/>
     <use xlink:href="#DejaVuSans-6f" x="926.904297"/>
     <use xlink:href="#DejaVuSans-6e" x="988.085938"/>
    </g>
    <!-- • Cycle-cover &amp; routing -->
    <g style="fill: #222222" transform="translate(1364.975571 103.263625) scale(0.16 -0.16)">
     <defs>
      <path id="DejaVuSans-2d" d="M 313 2009 
L 1997 2009 
L 1997 1497 
L 313 1497 
L 313 2009 
z
" transform="scale(0.015625)"/>
     </defs>
     <use xlink:href="#DejaVuSans-2022"/>
     <use xlink:href="#DejaVuSans-20" x="58.984375"/>
     <use xlink:href="#DejaVuSans-43" x="90.771484"/>
     <use xlink:href="#DejaVuSans-79" x="160.595703"/>
     <use xlink:href="#DejaVuSans-63" x="219.775391"/>
     <use xlink:href="#DejaVuSans-6c" x="274.755859"/>
     <use xlink:href="#DejaVuSans-65" x="302.539062"/>
     <use xlink:href="#DejaVuSans-2d" x="364.0625"/>
     <use xlink:href="#DejaVuSans-63" x="400.146484"/>
     <use xlink:href="#DejaVuSans-6f" x="455.126953"/>
     <use xlink:href="#DejaVuSans-76" x="516.308594"/>
     <use xlink:href="#DejaVuSans-65" x="575.488281"/>
     <use xlink:href="#DejaVuSans-72" x="637.011719"/>
     <use xlink:href="#DejaVuSans-20" x="678.125"/>
     <use xlink:href="#DejaVuSans-26" x="709.912109"/>
     <use xlink:href="#DejaVuSans-20" x="787.890625"/>
     <use xlink:href="#DejaVuSans-72" x="819.677734"/>
     <use xlink:href="#DejaVuSans-6f" x="858.541016"/>
     <use xlink:href="#DejaVuSans-75" x="919.722656"/>
     <use xlink:href="#DejaVuSans-74" x="983.101562"/>
     <use xlink:href="#DejaVuSans-69" x="1022.310547"/>
     <use xlink:href="#DejaVuSans-6e" x="1050.09375"/>
     <use xlink:href="#DejaVuSans-67" x="1113.472656"/>
    </g>
   </g>
  </g>
 </g>
 <defs>
  <clipPath id="pe5f808cee2">
   <rect x="0" y="0.576177" width="1844.64" height="161.927646"/>
  </clipPath>
 </defs>
</svg>
